<?xml version="1.0" encoding="UTF-8"?>
<svg width="187px" height="49px" viewBox="0 0 187 49" version="1.1" xmlns="http://www.w3.org/2000/svg" xmlns:xlink="http://www.w3.org/1999/xlink">
    <title>7880C9BE-6C36-4127-96F3-078D6708E5FCgar_trademark</title>
    <defs>
        <polygon id="path-1" points="0.000207467568 0.507050736 186.169639 0.507050736 186.169639 38.412067 0.000207467568 38.412067"></polygon>
        <polygon id="path-3" points="0.198892242 0.363206556 10.6068486 0.363206556 10.6068486 12.4480541 0.198892242 12.4480541"></polygon>
    </defs>
    <g id="Trademark" stroke="none" stroke-width="1" fill="none" fill-rule="evenodd">
        <g id="Tablet-Footer---Trademark" transform="translate(-40.000000, -153.000000)">
            <g id="Group-23" transform="translate(40.000000, 153.000000)">
                <g id="Group-3" transform="translate(0.000000, 0.184784)">
                    <mask id="mask-2" fill="white">
                        <use xlink:href="#path-1"></use>
                    </mask>
                    <g id="Clip-2"></g>
                    <path d="M180.063384,17.5581186 C180.063384,14.9260467 178.372524,13.7988063 176.494251,13.7988063 C174.754981,13.7988063 173.206581,14.7856603 172.032315,16.2427742 L172.032315,30.1928935 L165.925853,30.1928935 L165.925853,17.5581186 C165.925853,14.9737643 164.281327,13.7988063 162.356719,13.7988063 C160.617449,13.7988063 159.066975,14.7856603 157.892017,16.2427742 L157.892017,30.1928935 L151.786246,30.1928935 L151.786246,8.67919824 L157.752322,8.67919824 L157.752322,9.52566592 C157.752322,10.2766985 157.658962,11.215835 157.658962,11.215835 C159.255079,9.24420158 161.652021,8.11626957 164.092531,8.11626957 C167.288223,8.11626957 169.777142,9.47863994 170.997743,12.0145852 C172.782656,9.52566592 175.225241,8.11626957 178.232829,8.11626957 C182.882177,8.11626957 186.169846,11.0754487 186.169846,16.1016963 L186.169846,30.1928935 L180.063384,30.1928935 L180.063384,17.5581186 Z M132.854139,19.4363916 C132.854139,22.7697039 135.061594,25.3084154 138.256595,25.3084154 C141.403186,25.3084154 143.610641,22.7697039 143.610641,19.4363916 C143.610641,16.0539787 141.403186,13.5650595 138.256595,13.5650595 C135.061594,13.5650595 132.854139,16.0539787 132.854139,19.4363916 L132.854139,19.4363916 Z M126.747677,19.4363916 C126.747677,12.8596697 131.868668,8.11626957 138.256595,8.11626957 C144.64383,8.11626957 149.763438,12.8596697 149.763438,19.4363916 C149.763438,26.0110389 144.64383,30.7558222 138.256595,30.7558222 C131.868668,30.7558222 126.747677,26.0110389 126.747677,19.4363916 L126.747677,19.4363916 Z M108.237421,19.4363916 C108.237421,22.7697039 110.445567,25.3084154 113.638493,25.3084154 C116.785776,25.3084154 118.994614,22.7697039 118.994614,19.4363916 C118.994614,16.0539787 116.785776,13.5650595 113.638493,13.5650595 C110.445567,13.5650595 108.237421,16.0539787 108.237421,19.4363916 L108.237421,19.4363916 Z M102.130959,19.4363916 C102.130959,12.8596697 107.251258,8.11626957 113.638493,8.11626957 C120.027111,8.11626957 125.146719,12.8596697 125.146719,19.4363916 C125.146719,26.0110389 120.027111,30.7558222 113.638493,30.7558222 C107.251258,30.7558222 102.130959,26.0110389 102.130959,19.4363916 L102.130959,19.4363916 Z M101.236774,14.6916084 L98.6531107,14.6916084 C95.5535453,14.6916084 94.1441489,16.1480307 94.1441489,19.9052683 L94.1441489,30.1928935 L88.0376868,30.1928935 L88.0376868,8.67919824 L93.956045,8.67919824 L93.956045,12.1086371 C94.8011295,9.80713025 96.8675065,8.39773391 99.5459128,8.39773391 C100.108841,8.39773391 100.673153,8.44545145 101.236774,8.58652939 L101.236774,14.6916084 Z M78.7804839,22.4896227 L78.7804839,20.9384568 C78.4049676,21.3153562 77.7472955,21.4094082 76.9022109,21.4094082 L74.6000125,21.4094082 C72.6747134,21.4094082 71.5467814,22.2551843 71.5467814,23.7572495 C71.5467814,25.2136719 72.7210478,26.2945779 74.6000125,26.2945779 C76.8074674,26.2945779 78.7804839,25.1666459 78.7804839,22.4896227 L78.7804839,22.4896227 Z M78.7804839,15.8658748 C78.7804839,14.3167836 77.5591915,13.3306211 75.2113502,13.3306211 C73.0502297,13.3306211 70.325489,14.4108356 68.7286803,15.3499721 L66.333813,10.7462668 C66.333813,10.7462668 70.325489,8.11626957 75.539149,8.11626957 C80.4250102,8.11626957 84.886946,10.3707505 84.886946,16.0539787 L84.886946,30.1928935 L78.7804839,30.1928935 L78.7804839,28.1728509 C77.6532435,29.8637116 75.2113502,30.7558222 72.7687654,30.7558222 C68.212086,30.7558222 65.252907,27.5158703 65.252907,23.9923794 C65.252907,19.9052683 68.259112,17.3700147 73.0502297,17.3700147 L77.2777272,17.3700147 C78.3109157,17.3700147 78.7804839,16.8997548 78.7804839,16.1016963 L78.7804839,15.8658748 Z M57.9701038,0.507050736 L57.9701038,8.67919824 L62.6201435,8.67919824 L62.6201435,13.8465238 L57.9701038,13.8465238 L57.9701038,23.5705287 C57.9701038,24.9322075 59.0503182,25.1196199 59.9894548,25.1196199 C61.5392375,25.1196199 62.8082474,24.9785419 62.8082474,24.9785419 L62.8082474,30.1928935 C62.8082474,30.1928935 59.8490684,30.4750494 58.0641557,30.4750494 C55.0109247,30.4750494 51.8643332,29.9563805 51.8643332,25.6375972 L51.8643332,13.8465238 L48.4812288,13.8465238 L48.4812288,8.67919824 L51.8636417,8.67919824 L51.8636417,0.507050736 L57.9701038,0.507050736 Z M31.4273947,17.1341932 L41.0566561,17.1341932 C40.7281657,14.9737643 38.8962271,13.1895432 36.3125643,13.1895432 C33.7289016,13.1895432 31.8969629,14.8326863 31.4273947,17.1341932 L31.4273947,17.1341932 Z M47.586352,21.2213043 L31.5684726,21.2213043 C31.8969629,23.6161716 33.7759275,25.5428537 36.5006683,25.5428537 C38.2848893,25.5428537 39.9764416,24.790438 40.8215261,23.3353988 L47.1624266,23.9923794 C45.2371276,28.5960848 41.1970424,30.7558222 36.4066163,30.7558222 C29.9716639,30.7558222 25.1335202,26.0110389 25.1335202,19.4363916 C25.1335202,12.8596697 29.8776119,8.11626957 36.3125643,8.11626957 C42.2302309,8.11626957 47.586352,11.9675592 47.586352,20.9861744 L47.586352,21.2213043 Z M11.6958458,25.1666459 C14.9378724,25.1666459 17.1446357,22.7697039 17.1446357,19.2960053 C17.1446357,15.7718228 14.9378724,13.3769555 11.6958458,13.3769555 C8.50153685,13.3769555 6.29477348,15.7718228 6.29477348,19.2960053 C6.29477348,22.7697039 8.50153685,25.1666459 11.6958458,25.1666459 L11.6958458,25.1666459 Z M23.1100199,8.67919824 L23.1100199,31.7897022 C23.1100199,35.1714236 21.4198507,38.412067 16.2054992,38.412067 L6.85839371,38.412067 L6.85839371,33.2461245 L14.7020509,33.2461245 C15.7822654,33.2461245 17.0035578,32.9639686 17.0035578,31.3201339 L17.0035578,27.1853053 C15.9703693,28.9245751 13.3867065,30.4280234 10.3334755,30.4280234 C4.50916928,30.4280234 0.000207467568,26.0110389 0.000207467568,19.2960053 C0.000207467568,12.531871 4.4621433,8.11626957 10.287141,8.11626957 C13.5277845,8.11626957 16.0167037,9.61971788 17.0976097,11.4509649 C17.0976097,11.215835 17.0035578,10.7932928 17.0035578,9.66536075 L17.0035578,8.67919824 L23.1100199,8.67919824 Z" id="Fill-1" fill="#70BE4A" mask="url(#mask-2)"></path>
                </g>
                <g id="Group-6" transform="translate(87.827937, 35.454271)">
                    <mask id="mask-4" fill="white">
                        <use xlink:href="#path-3"></use>
                    </mask>
                    <g id="Clip-5"></g>
                    <path d="M6.56123099,7.74559418 L6.56123099,6.31061017 L10.6068486,6.31061017 L10.6068486,10.9094746 C10.1801569,11.3015883 9.60408866,11.6556663 8.87795217,11.9724001 C8.15181568,12.2898255 7.2119876,12.4481924 6.05985104,12.4481924 C4.86068849,12.4481924 3.82335065,12.1854001 2.94783752,11.6618903 C2.07163282,11.1369974 1.39459699,10.4198511 0.916730027,9.50906851 C0.438171504,8.59828589 0.198892242,7.57270454 0.198892242,6.43163292 C0.198892242,5.59000615 0.337203954,4.80370407 0.613827378,4.07203511 C0.890450802,3.3396746 1.28533074,2.69445046 1.79777563,2.13497959 C2.31091208,1.57620027 2.92155829,1.14120994 3.63109738,0.830008584 C4.33925334,0.518807232 5.12624698,0.363206556 5.99069518,0.363206556 C6.80880896,0.363206556 7.50935778,0.484229304 8.09165009,0.7262748 C8.67325084,0.968320296 9.16010806,1.26499892 9.55222177,1.61631067 C9.94433547,1.96831397 10.2493128,2.30510299 10.4685369,2.62806084 L9.29288731,3.63082075 C9.10893273,3.36595382 8.8724197,3.09486287 8.58403978,2.81823944 C8.29565986,2.54161602 7.94434811,2.30786923 7.52941298,2.11769062 C7.11447784,1.92751202 6.61309789,1.8327685 6.02527311,1.8327685 C5.18364634,1.8327685 4.45474362,2.04023606 3.83787338,2.4551712 C3.22169471,2.87010634 2.74866865,3.42335318 2.4208699,4.11491174 C2.09168802,4.8064703 1.92778864,5.57271719 1.92778864,6.41434396 C1.92778864,7.30161359 2.10966854,8.085841 2.47273679,8.76564306 C2.83511347,9.44544512 3.33096096,9.97863677 3.95889613,10.365218 C4.58752286,10.7511077 5.30536065,10.9440525 6.11171793,10.9440525 C6.7797635,10.9440525 7.35099087,10.8659064 7.82332537,10.7109973 C8.29565986,10.5547051 8.69330603,10.3506953 9.01626388,10.0968933 L9.01626388,7.74559418 L6.56123099,7.74559418 Z" id="Fill-4" fill="#FEFEFE" mask="url(#mask-4)"></path>
                </g>
                <polygon id="Fill-7" fill="#FEFEFE" points="100.786085 47.6257708 100.786085 36.0940318 108.04745 36.0940318 108.04745 37.5635938 102.445134 37.5635938 102.445134 40.9176528 106.664333 40.9176528 106.664333 42.4045037 102.445134 42.4045037 102.445134 46.1389199 108.462385 46.1389199 108.462385 47.6257708"></polygon>
                <polygon id="Fill-9" fill="#FEFEFE" points="113.596792 47.6257708 113.596792 37.5463048 109.464038 37.5463048 109.464038 36.0940318 119.371306 36.0940318 119.371306 37.5463048 115.255841 37.5463048 115.255841 47.6257708"></polygon>
                <path d="M126.20017,43.0097557 L129.951876,43.0097557 L128.084667,37.9440893 L126.20017,43.0097557 Z M122.776955,47.6259091 L127.289375,36.0941701 L128.983694,36.0941701 L133.496113,47.6259091 L131.646194,47.6259091 L130.453255,44.4101618 L125.716079,44.4101618 L124.523141,47.6259091 L122.776955,47.6259091 Z" id="Fill-11" fill="#FEFEFE"></path>
                <path d="M139.460667,46.1389891 L141.60519,46.1389891 C143.045707,46.1389891 144.166032,45.7842195 144.967548,45.075372 C145.768373,44.3665245 146.168785,43.3153555 146.168785,41.9204819 C146.168785,40.5145433 145.78013,39.4391697 145.002126,38.6957443 C144.224123,37.9530104 143.074752,37.5809519 141.552632,37.5809519 L139.460667,37.5809519 L139.460667,46.1389891 Z M137.801618,47.62584 L137.801618,36.094101 L141.656366,36.094101 C142.877658,36.094101 143.958564,36.2988023 144.897701,36.7075134 C145.837529,37.1169161 146.575422,37.7483091 147.11138,38.6010008 C147.647338,39.4536925 147.915662,40.5491212 147.915662,41.8859039 C147.915662,43.1770438 147.647338,44.2489595 147.11138,45.1016512 C146.575422,45.9543429 145.834763,46.5885021 144.890094,47.0034373 C143.944042,47.4183724 142.861061,47.62584 141.639077,47.62584 L137.801618,47.62584 Z" id="Fill-13" fill="#FEFEFE"></path>
                <polygon id="Fill-15" fill="#FEFEFE" points="149.903617 47.6257708 149.903617 36.0940318 157.164981 36.0940318 157.164981 37.5635938 151.562666 37.5635938 151.562666 40.9176528 155.781864 40.9176528 155.781864 42.4045037 151.562666 42.4045037 151.562666 46.1389199 157.579917 46.1389199 157.579917 47.6257708"></polygon>
                <path d="M161.797871,43.0097557 L165.549576,43.0097557 L163.682368,37.9440893 L161.797871,43.0097557 Z M158.374656,47.6259091 L162.887075,36.0941701 L164.581394,36.0941701 L169.093813,47.6259091 L167.243894,47.6259091 L166.050956,44.4101618 L161.31378,44.4101618 L160.120841,47.6259091 L158.374656,47.6259091 Z" id="Fill-17" fill="#FEFEFE"></path>
                <polygon id="Fill-19" fill="#FEFEFE" points="170.442353 47.6257708 170.442353 36.0940318 172.101402 36.0940318 172.101402 46.1562089 178.100672 46.1562089 178.100672 47.6257708"></polygon>
                <path d="M182.531834,44.6086391 L182.918415,44.6086391 C183.075399,44.6086391 183.20472,44.577519 183.303613,44.5152787 C183.403889,44.4530385 183.45299,44.3389313 183.45299,44.1729572 C183.45299,44.0318793 183.408038,43.9281455 183.316753,43.8617559 C183.224775,43.7953663 183.125191,43.7621715 183.017308,43.7621715 L182.531834,43.7621715 L182.531834,44.6086391 Z M181.971671,46.0277173 L181.971671,43.3015935 L183.104444,43.3015935 C183.378993,43.3015935 183.600292,43.3783565 183.770415,43.5318825 C183.940538,43.6854085 184.0256,43.8949507 184.0256,44.1605092 C184.0256,44.3679768 183.977882,44.5381002 183.882447,44.6708794 C183.787012,44.8036586 183.665298,44.9032431 183.51523,44.9696327 L184.199873,46.0277173 L183.527678,46.0277173 L182.930171,45.031873 L182.531834,45.031873 L182.531834,46.0277173 L181.971671,46.0277173 Z M182.955067,46.9862175 C183.594067,46.9862175 184.116886,46.7828992 184.523522,46.3762628 C184.930159,45.9696264 185.134168,45.4343601 185.134168,44.7704638 C185.134168,44.1065676 184.930159,43.5713013 184.523522,43.1646649 C184.116886,42.7580284 183.594067,42.5547102 182.955067,42.5547102 C182.30846,42.5547102 181.780801,42.7580284 181.374165,43.1646649 C180.967528,43.5713013 180.76421,44.1065676 180.76421,44.7704638 C180.76421,45.4343601 180.967528,45.9696264 181.374165,46.3762628 C181.780801,46.7828992 182.30846,46.9862175 182.955067,46.9862175 L182.955067,46.9862175 Z M182.955067,47.5837241 C182.407353,47.5837241 181.919804,47.4654675 181.492421,47.2289545 C181.065038,46.9924415 180.727557,46.6625681 180.477905,46.2393342 C180.228944,45.8161004 180.104463,45.3264769 180.104463,44.7704638 C180.104463,44.2061521 180.228944,43.7144539 180.477905,43.2953694 C180.727557,42.8762849 181.065038,42.5484862 181.492421,42.3119732 C181.919804,42.0754601 182.407353,41.9572036 182.955067,41.9572036 C183.502782,41.9572036 183.990331,42.0754601 184.418405,42.3119732 C184.845788,42.5484862 185.181194,42.8762849 185.426698,43.2953694 C185.670818,43.7144539 185.793915,44.2061521 185.793915,44.7704638 C185.793915,45.3264769 185.670818,45.8161004 185.426698,46.2393342 C185.181194,46.6625681 184.845788,46.9924415 184.418405,47.2289545 C183.990331,47.4654675 183.502782,47.5837241 182.955067,47.5837241 L182.955067,47.5837241 Z" id="Fill-21" fill="#FEFEFE"></path>
            </g>
        </g>
    </g>
</svg>