<?xml version="1.0" encoding="utf-8"?>
<!-- Generator: Adobe Illustrator 19.0.0, SVG Export Plug-In . SVG Version: 6.00 Build 0)  -->
<svg version="1.1" id="layer" xmlns="http://www.w3.org/2000/svg" xmlns:xlink="http://www.w3.org/1999/xlink" x="0px" y="0px"
	 viewBox="-153 -46 652 652" style="enable-background:new -153 -46 652 652;" xml:space="preserve">
<style type="text/css">
	.st0{fill:#F25621;}
	.st1{fill:#FFFFFF;}
</style>
<g>
	<path d="M255.7,283.2h-17.1v-26.5c0-0.5-0.4-1-1-1h-10.9c-0.5,0-1,0.4-1,1v36.5c0,0.5,0.4,1,1,1h29c0.5,0,1-0.4,1-1v-9
		C256.7,283.7,256.2,283.2,255.7,283.2 M379.4,270.3c0,2.4-1.9,3.7-4.9,3.7h-5.5v-7.5h5.6c3,0,4.9,1.2,4.9,3.7V270.3z M385.2,282.1
		c-0.3-0.5-0.2-1.1,0.3-1.4c4.1-2.3,6.6-6,6.6-11.3v-0.1c0-4-1.2-6.8-3.5-9.1c-2.7-2.7-7-4.4-13.8-4.4H357c-0.5,0-1,0.4-1,1v36.5
		c0,0.5,0.4,1,1,1h10.9c0.5,0,1-0.4,1-1v-10h2.7l7,10.5c0.2,0.3,0.5,0.4,0.8,0.4h12.3c0.8,0,1.2-0.9,0.8-1.5L385.2,282.1z
		 M339.9,275.1c0,4.5-3.1,8.6-8,8.6c-4.9,0-8.1-4.1-8.1-8.7v-0.1c0-4.5,3.1-8.6,8-8.6c4.9,0,8.1,4.1,8.1,8.7V275.1z M331.9,255
		c-11.9,0-21,8.9-21,20v0.1c0,11.2,9.1,19.9,20.9,19.9c11.9,0,21-8.9,21-20v-0.1C352.8,263.7,343.8,255,331.9,255 M221.3,283.7
		h-19.4v-1l0,0v-2.2l0,0v-1h17.8c0.5,0,1-0.4,1-1v-7.3c0-0.5-0.4-1-1-1h-17.8v-1l0,0v-2l0,0v-1h19.2c0.5,0,1-0.4,1-1v-8.6
		c0-0.5-0.4-1-1-1h-30.8c-0.5,0-1,0.4-1,1v36.5c0,0.5,0.4,1,1,1h31.1c0.5,0,1-0.4,1-1v-8.6C222.3,284.1,221.9,283.7,221.3,283.7
		 M426.4,283.2h-17.1v-26.5c0-0.5-0.4-1-1-1h-10.9c-0.5,0-1,0.4-1,1v36.5c0,0.5,0.4,1,1,1h29c0.5,0,1-0.4,1-1v-9
		C427.3,283.7,426.9,283.2,426.4,283.2 M311.2,255.8h-11.2c-0.4,0-0.8,0.3-0.9,0.7l-4.4,14.8c-0.3,0.9-1.6,0.9-1.9,0l-5-15
		c-0.1-0.4-0.5-0.7-0.9-0.7h-9.7c-0.4,0-0.8,0.3-0.9,0.7l-5,15c-0.3,0.9-1.6,0.9-1.9,0l-4.4-14.8c-0.1-0.4-0.5-0.7-0.9-0.7h-11.4
		c-0.7,0-1.1,0.6-0.9,1.3l11.9,36.8c0.1,0.4,0.5,0.7,0.9,0.7h9.8c0.4,0,0.8-0.3,0.9-0.6l5.6-15.9c0.3-0.9,1.5-0.9,1.8,0l5.6,15.9
		c0.1,0.4,0.5,0.6,0.9,0.6h9.8c0.4,0,0.8-0.3,0.9-0.7l11.9-36.8C312.4,256.4,311.9,255.8,311.2,255.8 M64,255.8H53.1
		c-0.5,0-1,0.4-1,1v12.6H40.4v-12.6c0-0.5-0.4-1-1-1H28.5c-0.5,0-1,0.4-1,1v36.5c0,0.5,0.4,1,1,1h10.9c0.5,0,1-0.4,1-1v-12.8h11.7
		v12.8c0,0.5,0.4,1,1,1H64c0.5,0,1-0.4,1-1v-36.5C65,256.2,64.5,255.8,64,255.8 M455.1,275.1c0,5.5-3.8,8-9.7,8h-2.1v-16h2.1
		c5.9,0,9.7,2.4,9.7,8V275.1z M445.1,255.8h-13.7c-0.5,0-1,0.4-1,1v36.5c0,0.5,0.4,1,1,1h13.3c15.5,0,23.3-8.1,23.3-19.4v-0.1
		C468,263.3,460.4,255.8,445.1,255.8 M131.3,269.4c-4.1-0.8-5.1-1.4-5.1-2.5v-0.1c0-0.9,0.9-1.6,2.8-1.6c3.3,0,7.3,1,10.8,3.3
		c0.4,0.3,1,0.2,1.3-0.3l5.1-7.1c0.3-0.4,0.2-1.1-0.2-1.4c-4.3-3.1-9.6-4.7-16.6-4.7c-10.6,0-16.3,5.7-16.3,13v0.1
		c0,8.1,7.6,10.6,16.2,12.4c4.1,0.8,5.3,1.4,5.3,2.5v0.1c0,1-1,1.6-3.3,1.6c-4.3,0-8.7-1.2-12.7-4c-0.4-0.3-1-0.2-1.3,0.2l-5.6,6.7
		c-0.4,0.4-0.3,1.1,0.1,1.4c4.8,3.9,11.5,5.8,18.9,5.8c10.3,0,17-4.9,17-13v-0.1C147.7,274.1,141.1,271.2,131.3,269.4 M184.3,255.8
		h-33.5c-0.5,0-1,0.4-1,1v8.9c0,0.5,0.4,1,1,1h10.3v26.6c0,0.5,0.4,1,1,1h10.9c0.5,0,1-0.4,1-1v-26.6h10.3c0.5,0,1-0.4,1-1v-8.9
		C185.2,256.2,184.8,255.8,184.3,255.8 M97.5,275.1c0,4.5-3.1,8.6-8,8.6c-4.9,0-8.1-4.1-8.1-8.7v-0.1c0-4.5,3.1-8.6,8-8.6
		c4.9,0,8.1,4.1,8.1,8.7V275.1z M89.5,255c-11.9,0-21,8.9-21,20v0.1c0,11.2,9.1,19.9,20.9,19.9c11.9,0,21-8.9,21-20v-0.1
		C110.4,263.7,101.4,255,89.5,255"/>
	<path class="st0" d="M0.4,322.8c0,10.2-8.2,18.4-18.4,18.4h-95.5c-10.2,0-18.4-8.2-18.4-18.4v-95.5c0-10.2,8.2-18.4,18.4-18.4H-18
		c10.2,0,18.4,8.2,18.4,18.4V322.8z"/>
	<path class="st1" d="M-22.5,229.9h-26.5c-1,0-1.8,0.8-1.8,1.8v23.7h3c0.4,0,0.8,0.4,0.8,0.8c0,0.2-0.1,0.3-0.2,0.5l-17,17.3
		c-0.3,0.3-0.4,0.7-0.4,1.1c0,0.4,0.1,0.8,0.4,1.1l17,17.3c0.1,0.1,0.2,0.3,0.2,0.5c0,0.4-0.3,0.8-0.8,0.8h-3v23.7
		c0,1,0.8,1.8,1.8,1.8h26.5c1,0,1.8-0.8,1.8-1.8v-86.7C-20.7,230.7-21.5,229.9-22.5,229.9 M-84.3,256.7L-84.3,256.7
		c-0.1-0.2-0.2-0.4-0.2-0.6c0-0.4,0.3-0.8,0.8-0.8h2.9v-23.7c0-1-0.8-1.8-1.8-1.8h-26.6c-1,0-1.8,0.8-1.8,1.8v86.7
		c0,1,0.8,1.8,1.8,1.8h26.5c1,0,1.8-0.8,1.8-1.8v-23.7h-2.9c-0.4,0-0.8-0.4-0.8-0.8c0-0.2,0.1-0.4,0.2-0.6l0,0l16.9-17.2
		c0.3-0.3,0.4-0.7,0.4-1.1c0-0.4-0.1-0.8-0.4-1.1L-84.3,256.7z"/>
</g>
</svg>
