<?xml version="1.0" encoding="UTF-8"?> <svg xmlns="http://www.w3.org/2000/svg" width="197.984" height="36.1" viewBox="0 0 197.984 36.1"><path d="M962.887,308.8a20.159,20.159,0,0,1-1.377,3.051,1.786,1.786,0,0,1-1.167.869c-1.845.091-3.7.036-5.767.036.752-1.744,1.4-3.307,2.117-4.839a1.062,1.062,0,0,1,.793-.45c1.493-.042,2.986-.042,4.478-.009.919.022,1.242.45.923,1.342m-3.676,12.7c-.458.986-.952,1.952-1.445,2.916a2.678,2.678,0,0,1-2.319,1.606c-1.795.075-3.6.042-5.395.059h-1.279c.737-1.746,1.369-3.271,2.023-4.785,1.016-2.356.4-1.9,2.891-1.934,1.458-.019,2.923-.029,4.375.079s1.76.741,1.149,2.059m11.1-2a3,3,0,0,0-1.867-3.463c-.42-.19-.856-.347-1.2-.488a18.5,18.5,0,0,0,2.863-2.412,22.574,22.574,0,0,0,4.339-9.112c.631-2.822-.816-4.633-3.685-5.144a8.358,8.358,0,0,0-1.419-.146c-6.42-.01-12.842,0-19.261-.014a2.4,2.4,0,0,0-2.454,1.6q-7.049,16.2-14.121,32.394c-.661,1.523-.418,1.887,1.238,1.887q8.46.01,16.918,0c1.731-.007,3.466-.022,5.192-.125,4.2-.251,7.535-2.031,9.522-5.838,1.286-2.462,2.364-5.034,3.5-7.568a6.242,6.242,0,0,0,.429-1.568" transform="translate(-866.827 -298.66)" fill="#0a1f3b"></path><path d="M933.063,308.84c-.74,1.708-1.493,3.415-2.339,5.069a1.965,1.965,0,0,1-1.25,1.032c-1.805.118-3.621.05-5.6.05.868-1.965,1.8-3.74,2.432-5.614a2.436,2.436,0,0,1,3.04-1.939c.928.127,1.894-.012,2.84.042.919.053,1.232.532.874,1.361m3.631,9.218a2.728,2.728,0,0,1-.345-.271,11.646,11.646,0,0,0,5.488-6.2c.568-1.457,1.259-2.862,1.8-4.324a15.447,15.447,0,0,0,.892-3.226c.366-2.689-.876-4.487-3.409-5.077a10.005,10.005,0,0,0-2.216-.273c-6.08-.018-12.16,0-18.238-.018a3.025,3.025,0,0,0-3.041,1.951q-6.972,15.951-13.925,31.918c-.6,1.376-.185,1.983,1.322,1.989,2.716.008,5.435-.023,8.152.013a3.159,3.159,0,0,0,3.22-2.15c1.085-2.561,2.253-5.086,3.327-7.654a1.4,1.4,0,0,1,1.586-1.053c.913.074,1.836.031,2.751.014,1.842-.041,2.119.381,1.378,2.106q-1.409,3.272-2.806,6.553c-.672,1.575-.3,2.168,1.376,2.172,2.717.007,5.433-.015,8.153.008a2.957,2.957,0,0,0,2.967-1.891c1.309-2.984,2.632-5.962,3.886-8.971,1.121-2.694.353-4.471-2.32-5.614" transform="translate(-871.499 -298.668)" fill="#0a1f3b"></path><path d="M1046.462,298.749c-.4-.045-.536-.073-.665-.073-8.6,0-17.189-.013-25.785.031a1.665,1.665,0,0,0-1.166.708c-1.761,2.739-3.462,5.52-5.181,8.294-.131.213-.22.452-.439.909h10.522c-7.951,8.725-15.668,17.193-23.5,25.79a3.965,3.965,0,0,0,.54.11q13.806.009,27.613-.012a1.735,1.735,0,0,0,1.062-.444c3.235-3,6.446-6.034,9.657-9.06a5.052,5.052,0,0,0,.465-.7h-16.2c7.753-8.591,15.355-17.005,23.076-25.554" transform="translate(-856.287 -298.667)" fill="#0a1f3b"></path><path d="M1006.917,308.549c1.562.052,3.128-.025,4.689.028a1.532,1.532,0,0,0,1.555-.846c1.626-2.708,3.3-5.386,4.95-8.079.163-.265.292-.561.444-.862a1.541,1.541,0,0,0-.31-.1q-13.712-.007-27.415.012a1.106,1.106,0,0,0-.826.529c-1.4,3.013-2.749,6.052-4.191,9.255.471.032.766.074,1.063.074,1.594.009,3.191-.016,4.788.016.929.015,1.073.282.724,1.143-.1.252-.23.494-.339.741q-5.155,11.416-10.3,22.836c-.48,1.07-.37,1.231.805,1.231,3.333.007,6.661-.039,9.988.024a2.018,2.018,0,0,0,2.151-1.428c3.311-7.705,6.674-15.384,9.976-23.09a2.1,2.1,0,0,1,2.246-1.482" transform="translate(-859.235 -298.666)" fill="#0a1f3b"></path><path d="M895.416,319.7c-.029-.086-.055-.175-.082-.265h-2.779c1.2-2.767,2.352-5.333,3.441-7.924,1.037-2.474,2.048-3.364,5.6-2.818a1.674,1.674,0,0,0,1.155-.324c1.887-1.494,3.736-3.048,5.6-4.574.2-.161.425-.292.706-.486l4.191,7.174c.1.01.212.018.315.031.67-1.761,1.451-3.492,1.986-5.3,1.258-4.211-.508-6.524-4.911-6.537-4.722-.016-9.444-.008-14.162,0a12.333,12.333,0,0,0-5.966,1.481,14.563,14.563,0,0,0-6.714,8.138q-1.9,5.162-3.73,10.345a1.016,1.016,0,0,1-1.169.823c-.928-.043-1.86-.009-3.061-.009,2.6,3.506,5.031,6.777,7.505,10.108,4.118-3.364,8.1-6.613,12.075-9.865" transform="translate(-875.836 -298.667)" fill="#0a1f3b"></path><path d="M988.567,298.8c-1.493-.007-2.988,0-4.484,0-1.324,0-2.661.1-3.974-.025-1.783-.167-2.678.613-3.368,2.217-4.638,10.794-9.361,21.553-14.057,32.322-.476,1.088-.275,1.4.945,1.4,2.925.008,5.846-.068,8.764.035a2.78,2.78,0,0,0,3.009-1.978c2.092-4.9,4.279-9.763,6.432-14.638q3.911-8.857,7.812-17.7c.581-1.328.378-1.618-1.08-1.627" transform="translate(-862.226 -298.654)" fill="#0a1f3b"></path><path d="M912.365,315.308a16.124,16.124,0,0,0,2.07.012c-2.078-3.492-4.014-6.745-6-10.08-4.066,3.349-8,6.588-11.932,9.828.036.095.069.193.109.293h2.974c-1.062,2.34-1.972,4.49-3.019,6.571a2.768,2.768,0,0,1-2.719,1.458,2.938,2.938,0,0,0-1.729.588c-2.807,2.2-5.561,4.47-8.336,6.711-.277.223-.574.415-.913.662l-5.209-7.119c-.885,2.081-1.707,3.937-1.65,6.032a2.773,2.773,0,0,0,2.266,2.878,11.613,11.613,0,0,0,2.716.34c4.009.032,8.02-.031,12.031.024,6.431.087,10.97-2.8,13.666-8.6,1.26-2.707,2.464-5.444,3.591-8.211.419-1.025.934-1.555,2.087-1.386" transform="translate(-875.809 -297.635)" fill="#4db3fc"></path><path d="M1044.667,299.389a2.483,2.483,0,1,0,2.48,2.483,2.483,2.483,0,0,0-2.48-2.483m3.114,2.483a3.116,3.116,0,1,1-3.114-3.114,3.12,3.12,0,0,1,3.114,3.114" transform="translate(-849.797 -298.654)" fill="#0a1f3b"></path><path d="M1043.9,300.589v.837h.348a1,1,0,0,0,.249-.028.31.31,0,0,0,.228-.236.584.584,0,0,0,0-.31.3.3,0,0,0-.213-.23.907.907,0,0,0-.236-.032c-.11,0-.221,0-.332,0Zm1.06,1.128a.548.548,0,0,1,.153.058.829.829,0,0,1,.243.223,2.056,2.056,0,0,1,.21.361l.425.861.01.021h-.877c-.015,0-.021-.009-.028-.016-.131-.273-.264-.544-.4-.815a1.21,1.21,0,0,0-.153-.238.433.433,0,0,0-.31-.156c-.111-.008-.222-.006-.332-.008l-.006,0v1.231h-.841v-3.262h1.284a2.787,2.787,0,0,1,.491.04,1.2,1.2,0,0,1,.382.13.66.66,0,0,1,.33.427,1.053,1.053,0,0,1,0,.58.721.721,0,0,1-.353.458,1.441,1.441,0,0,1-.214.1l-.021.007" transform="translate(-849.559 -298.462)" fill="#0a1f3b"></path></svg> 