<svg xmlns="http://www.w3.org/2000/svg" xmlns:xlink="http://www.w3.org/1999/xlink" width="759.865" height="109.202" viewBox="0 0 759.865 109.202"><defs><clipPath id="clip-path"><rect id="Rect&#xE1;ngulo_2392" data-name="Rect&#xE1;ngulo 2392" width="741.671" height="109.202" transform="translate(0 0)" fill="none"></rect></clipPath></defs><g id="Grupo_6986" data-name="Grupo 6986" transform="translate(-6934 -12329)"><g id="Grupo_6985" data-name="Grupo 6985" transform="translate(6934 12329)"><g id="Grupo_6984" data-name="Grupo 6984" clip-path="url(#clip-path)"><path id="Trazado_3591" data-name="Trazado 3591" d="M153.068,54.291q0-18.7,0-37.4c0-3.133.884-4.057,3.906-4.057,10.408,0,20.817-.033,31.224.066a34.863,34.863,0,0,1,14.045,2.934c7.015,3.14,11.4,8.417,12.828,16,1.638,8.7,1.044,17.033-4.529,24.412-4.516,5.979-10.931,8.493-18.045,9.415-7.784,1.009-15.632.311-23.45.388-1.866.018-2.376.465-2.348,2.348.117,7.727.061,15.457.052,23.185,0,3.6-.64,4.24-4.187,4.271q-2.748.024-5.495.013c-3.184-.013-4-.788-4-3.933q-.021-15.582-.006-31.164,0-3.241,0-6.482m13.683-14.858c0,4.4.021,8.8-.015,13.2-.009,1.056.117,1.706,1.442,1.689,6.736-.09,13.477.015,20.207-.2,3.256-.106,6.59-.846,8.912-3.324,4.817-5.142,5.133-11.326,3.183-17.688-1.812-5.915-6.581-7.917-12.262-8.423-6.56-.585-13.136-.124-19.7-.321-1.5-.045-1.8.539-1.786,1.871.06,4.4.023,8.8.02,13.2" fill="#0f0f0f"></path><path id="Trazado_3592" data-name="Trazado 3592" d="M388.1,66.1c-6.408,0-12.817.039-19.225-.026-1.491-.015-2,.229-1.748,1.918,1.561,10.52,6.9,16.113,16.5,16.79,3.309.234,6.651.036,9.977-.034a23.92,23.92,0,0,0,5.635-.96,3.2,3.2,0,0,1,4.093,1.91c.672,1.424,1.41,2.819,2.038,4.262,1.08,2.482.385,3.884-2.277,4.639a34.718,34.718,0,0,1-10.058,1.571c-5.236-.085-10.492.389-15.7-.475-11.182-1.855-18.458-8.368-21.771-19.028a47.084,47.084,0,0,1-.713-24.14c2.95-13.691,11.73-21.269,25.718-22.027,9.062-.491,17.445,1.277,23.408,8.98,3.929,5.075,5.538,11.054,6.408,17.273a54.238,54.238,0,0,1,.5,5.7c.087,2.63-.912,3.625-3.553,3.634-6.409.022-12.817.007-19.226.009m-5.684-9.809c4.494,0,8.987.013,13.481-.015.634,0,1.712.386,1.5-.937-.667-4.22-1.536-8.4-5.187-11.2-5.055-3.881-10.726-3.732-16.363-1.805-5.708,1.952-7.319,7.008-8.39,12.289-.254,1.249.047,1.738,1.475,1.707,4.492-.1,8.986-.036,13.48-.034" fill="#0f0f0f"></path><path id="Trazado_3593" data-name="Trazado 3593" d="M682.549,66.116c-6.325,0-12.651.068-18.973-.044-1.753-.031-2.029.551-1.875,2.114,1.026,10.407,7.945,16.739,18.406,16.7,4.646-.018,9.328.3,13.862-1.14a2.572,2.572,0,0,1,.739-.1c2.078-.03,5.175,4.122,5.558,7.483.289,2.527-1.474,3.284-3.422,3.789-7.865,2.038-15.852,1.315-23.813.93a21.191,21.191,0,0,1-5.585-1.195c-9.1-3.01-14.777-9.3-17.4-18.327a47.43,47.43,0,0,1-.1-26.043c3.581-13.172,13.839-20.306,28.24-19.893,12.322.354,20.333,5.692,24.331,16.292a44.331,44.331,0,0,1,2.606,11.609c.724,7.806.68,7.81-7.1,7.81h-15.48Zm-5.581-9.825c4.488,0,8.977.021,13.464-.025.583-.006,1.787.5,1.558-.835-.735-4.265-1.563-8.533-5.318-11.393-9.513-7.245-22.266-2.028-24.526,9.945-.344,1.827-.222,2.44,1.857,2.357,4.315-.172,8.643-.052,12.965-.049" fill="#0f0f0f"></path><path id="Trazado_3594" data-name="Trazado 3594" d="M571.584,65.369q0,6.73,0,13.46c.006,9.255-2.456,12.891-11.333,15.313a56.41,56.41,0,0,1-27.4.967c-14.022-3.141-20.185-16.782-13.506-29.585,3.035-5.818,8.355-8.366,14.534-9.286,7.362-1.1,14.794-.382,22.194-.485,1.793-.025,2.55-.193,2.385-2.359-.63-8.26-4.031-11.552-12.374-11.557-4.412,0-8.824.018-13.236,0C530,41.824,529.2,41,529.13,38.1c-.185-7.409-.184-7.5,7.277-7.383,7.038.109,14.118-.666,21.06,1.44,8.55,2.594,13.414,8.166,13.9,17.015.3,5.383.055,10.8.055,16.193h.161m-23.685.568c-3.1.232-6.862-.48-10.545.5-4.312,1.147-6.825,3.907-7.205,7.861-.439,4.566,1.233,7.721,5.341,9.714,6.438,3.124,13.116,2.247,19.743.84a4.153,4.153,0,0,0,3.3-4.42c.021-4.313-.006-8.627.054-12.939.017-1.192-.4-1.6-1.588-1.577-2.824.062-5.651.02-9.1.02" fill="#0f0f0f"></path><path id="Trazado_3595" data-name="Trazado 3595" d="M453.309,59.335q0,16.071,0,32.141c0,3.556-.85,4.383-4.4,4.371-1.831-.007-3.661.028-5.492.015-2.971-.021-3.914-.9-3.935-3.858-.037-4.982,0-9.965,0-14.948,0-16.61-.039-33.221.049-49.83.012-2.18-.4-2.97-2.794-2.9-6.568.186-13.146.074-19.72.061-3.473-.007-4.329-.839-4.332-4.221-.007-7.013-.659-7.41,7.372-7.367,18.639.1,37.279.031,55.919.033,3.38,0,4.252.863,4.3,4.23.113,7.233.017,7.332-7.248,7.331-5.825,0-11.652.089-17.473-.061-1.952-.05-2.306.562-2.292,2.366.085,10.879.042,21.759.042,32.639" fill="#0f0f0f"></path><path id="Trazado_3596" data-name="Trazado 3596" d="M609.9,80.943a29.326,29.326,0,0,0,2.879-6.259q8.512-20.539,16.933-41.115c.8-1.966,2.006-2.9,4.134-2.806,1.911.086,3.828,0,5.742.022,3.555.04,4.693,1.662,3.334,4.918-4.464,10.7-8.98,21.378-13.47,32.067-3.462,8.24-6.976,16.459-10.331,24.742-.982,2.425-2.432,3.535-5.067,3.4-2.906-.145-5.825-.107-8.736-.035a3.8,3.8,0,0,1-4.045-2.586q-12.153-28.983-24.364-57.941c-1.151-2.743.087-4.59,3.122-4.554,10.793.131,8.371-1.555,12.335,7.962,5.508,13.228,10.945,26.485,16.419,39.728.307.745.666,1.469,1.115,2.453" fill="#0f0f0f"></path><path id="Trazado_3597" data-name="Trazado 3597" d="M54.375,67.106c4.414-.473,7.71,1.715,10.606,4.579,8.575,8.482,17.057,17.059,25.614,25.56a6.816,6.816,0,0,1,.488,9.553,7.021,7.021,0,0,1-9.805.723Q70.393,98.387,59.547,89.206c-.5-.423-1.031-.818-1.57-1.195-3.661-2.565-3.628-2.522-6.926.259-7.622,6.429-15.364,12.719-22.884,19.265a7.18,7.18,0,0,1-9.955-.845c-1.963-2.439-1.555-7.184.879-9.616C26.5,89.671,33.847,82.2,41.283,74.818a59.645,59.645,0,0,1,7.832-6.81c1.684-1.171,3.53-.558,5.26-.9" fill="#f7b11f"></path><path id="Trazado_3598" data-name="Trazado 3598" d="M67.091,54.513c.059-3.991,1.9-7.145,4.64-9.879Q81.268,35.115,90.805,25.6c2.356-2.349,4.61-4.816,7.115-7,4.352-3.786,10.549-1.6,11.5,3.954.413,2.4-.628,4.336-2.137,6.12C100.414,36.8,93.594,44.971,86.679,53.059c-1.011,1.183-1.048,1.886-.03,3.081,6.954,8.164,13.823,16.4,20.733,24.6,2.813,3.338,2.853,7.117.059,9.817s-6.8,2.718-9.838-.277Q83.919,76.8,70.421,63.125a11.94,11.94,0,0,1-3.33-8.612" fill="#5f4a9c"></path><path id="Trazado_3599" data-name="Trazado 3599" d="M55.09,42.25a11.907,11.907,0,0,1-9.321-3.665Q32.42,25.342,19.1,12.068c-2.719-2.715-3.18-7.163-1.095-9.5A7.119,7.119,0,0,1,28.26,1.852Q40.815,12.24,53.246,22.775c1.094.925,1.767,1.052,2.929.068Q68.6,12.323,81.141,1.945C84.469-.818,88.431-.6,91.153,2.37c2.286,2.5,2.048,7-.686,9.722-6.38,6.356-12.835,12.637-19.252,18.956-2.77,2.728-5.425,5.581-8.31,8.18A10.358,10.358,0,0,1,55.09,42.25" fill="#59c2ed"></path><path id="Trazado_3600" data-name="Trazado 3600" d="M42.341,53.858a13.123,13.123,0,0,1-4.2,10.224c-3.943,3.775-7.916,7.547-11.714,11.441-4.389,4.5-8.88,8.911-13.183,13.5-1.862,1.985-3.931,3.7-6.867,3.441A6.353,6.353,0,0,1,.6,88.395a6.836,6.836,0,0,1,1.245-7.414c6.985-8.223,13.9-16.5,20.94-24.681,1.168-1.358,1.136-2.131-.023-3.472-7-8.1-13.912-16.275-20.814-24.458C-.189,25.834-.566,22.7.806,20.29a6.868,6.868,0,0,1,7.143-3.475,6.749,6.749,0,0,1,3.9,2.047Q25.193,32.121,38.49,45.418a12.133,12.133,0,0,1,3.851,8.44" fill="#e61075"></path><path id="Trazado_3601" data-name="Trazado 3601" d="M333.66,95.872A39,39,0,0,1,319.121,93.9c-9.8-3.587-16.036-10.247-17.761-20.822a54.627,54.627,0,0,1,.581-21.739C304.8,39.4,314.032,33.054,325.055,31.28c6.115-.984,12.3-.374,18.449-.481a2.734,2.734,0,0,1,3.005,2.939c.056,1.577.052,3.158.02,4.736-.056,2.693-1.082,3.69-3.8,3.779-4.9.16-9.819-.348-14.71.4-7.6,1.164-12.292,5.423-13.842,12.991a35.333,35.333,0,0,0,.482,16.545c2.093,7.648,7.451,11.585,16.1,11.944,3.907.162,7.825.064,11.737.1,3.016.024,3.988.993,4.043,4.039.024,1.329.028,2.66-.008,3.989-.072,2.649-.945,3.541-3.662,3.6-2.663.059-5.328.013-9.211.013" fill="#0f0f0f"></path><path id="Trazado_3602" data-name="Trazado 3602" d="M715.279,46.945q0-14.941,0-29.883c0-3.37.874-4.216,4.295-4.23,1.331-.005,2.662,0,3.993,0,3.992,0,4.671.65,4.684,4.533q.09,26.768.182,53.537c.005,1.161.048,2.324.141,3.481.365,4.549,2.8,7.6,7.206,8.73,6.312,1.615,5.889,1.284,5.867,7.863a20.145,20.145,0,0,1-.023,2.24c-.2,1.775-1.109,3.06-3.024,2.929-4.812-.329-9.626-.821-13.977-3.156-6.533-3.5-9.257-9.26-9.31-16.408-.073-9.877-.018-19.755-.018-29.633h-.018" fill="#0f0f0f"></path><path id="Trazado_3603" data-name="Trazado 3603" d="M477.672,74.4c.275-6.779-.535-14.351,1.085-21.837a26.8,26.8,0,0,1,23.08-21.324,91.447,91.447,0,0,1,11.7-.453c2.257-.014,3.336,1.18,3.315,3.415-.013,1.412.018,2.824-.005,4.236-.045,2.677-1.09,3.8-3.763,3.793a44.951,44.951,0,0,0-9.439.68c-8.015,1.685-12.727,7.817-12.819,16.919-.108,10.463-.029,20.929-.03,31.394,0,3.88-.735,4.614-4.664,4.634q-2.248.01-4.494,0c-3.155-.017-3.953-.8-3.966-4.005-.022-5.564-.005-11.128-.005-17.448" fill="#0f0f0f"></path><path id="Trazado_3604" data-name="Trazado 3604" d="M223.419,74.41c.2-5.6-.318-12.161.5-18.705,2.075-16.649,14.093-24,27.674-24.869,2.57-.165,5.158-.06,7.738-.055,2.136,0,3.218,1.112,3.248,3.23.022,1.495.03,2.99,0,4.485-.051,2.644-1.115,3.687-3.814,3.752-2.327.057-4.646.069-6.975.283-11.7,1.074-15.141,9.819-15.239,17.6-.129,10.3-.03,20.6-.022,30.9,0,4.191-.652,4.842-4.937,4.833-1.331,0-2.662.011-3.993,0-3.511-.04-4.173-.718-4.177-4.294-.007-5.4,0-10.8,0-17.151" fill="#0f0f0f"></path><path id="Trazado_3605" data-name="Trazado 3605" d="M275,63.179q0-14.2,0-28.4c0-3.073.91-3.984,3.97-4,1.746-.009,3.494-.014,5.241,0,2.97.025,3.851.876,3.863,3.865.039,9.05.039,18.1.064,27.15q.041,14.822.1,29.641c.011,3.67-.733,4.414-4.338,4.414q-2.247,0-4.492,0c-3.754,0-4.411-.678-4.411-4.527q0-14.074,0-28.147" fill="#0f0f0f"></path><path id="Trazado_3606" data-name="Trazado 3606" d="M281.391,24.307c-1.845-.214-4.784.963-6.036-.5-1.074-1.253-.31-4.1-.316-6.236-.014-4.823,0-4.823,4.917-4.823,2.155,0,4.315.092,6.463-.033,1.475-.087,1.82.448,1.762,1.83a76.966,76.966,0,0,0,.005,7.937c.1,1.656-.53,1.957-1.97,1.848-1.483-.113-2.982-.025-4.825-.025" fill="#0f0f0f"></path></g></g><path id="registered" d="M13.3,8.97a1.6,1.6,0,0,0-.765-1.544,3.4,3.4,0,0,0-1.493-.23H9.467v3.585h2.067a1.733,1.733,0,0,0,1.3-.472,1.842,1.842,0,0,0,.459-1.339Zm.664,3.636,2.615,4.759a.386.386,0,0,1-.013.4.355.355,0,0,1-.344.2h-1.94a.363.363,0,0,1-.358-.217L11.445,13.09H9.467v4.466a.393.393,0,0,1-.408.408H7.349a.393.393,0,0,1-.408-.408V5.308A.393.393,0,0,1,7.349,4.9H11.1a7.157,7.157,0,0,1,2.424.306A3.31,3.31,0,0,1,15.234,6.6a4.227,4.227,0,0,1,.625,2.3A4.142,4.142,0,0,1,15.317,11a3.43,3.43,0,0,1-1.473,1.4Q13.921,12.53,13.959,12.606ZM11.432,2.041a9.144,9.144,0,0,0-3.649.746,9.271,9.271,0,0,0-5,5,9.3,9.3,0,0,0,0,7.3,9.271,9.271,0,0,0,5,5,9.3,9.3,0,0,0,7.3,0,9.271,9.271,0,0,0,5-5,9.3,9.3,0,0,0,0-7.3,9.271,9.271,0,0,0-5-5A9.144,9.144,0,0,0,11.432,2.041Zm11.432,9.391a11.178,11.178,0,0,1-.906,4.44,11.231,11.231,0,0,1-6.086,6.086,11.337,11.337,0,0,1-8.88,0A11.231,11.231,0,0,1,.906,15.873a11.337,11.337,0,0,1,0-8.88A11.231,11.231,0,0,1,6.992.906a11.337,11.337,0,0,1,8.88,0,11.231,11.231,0,0,1,6.086,6.086A11.178,11.178,0,0,1,22.865,11.432Z" transform="translate(7671 12339)"></path></g></svg>