<svg width="1200" height="300" viewBox="0 0 1200 300" fill="none" xmlns="http://www.w3.org/2000/svg">
<path d="M371.869 219.776C352.62 241.287 329.138 247.229 307.062 247.229C255.561 247.229 224.702 213.833 224.702 173.087C224.702 132.341 257.809 97.8008 303.091 97.8008C341.865 97.8008 378.377 122.138 378.377 177.321H259.518C259.518 199.962 277.912 217.791 308.758 217.791C326.587 217.791 339.893 211.282 352.055 200.238L371.869 219.763V219.776ZM261.214 153.838H342.72C337.342 131.762 317.817 125.543 303.104 125.543C288.391 125.543 268.577 131.776 261.214 153.838Z" fill="black"/>
<path d="M420.821 198.546C424.503 212.694 438.374 219.202 451.391 219.202C461.58 219.202 472.901 215.521 472.901 204.2C472.901 196.837 466.103 192.59 457.334 188.922L436.389 180.994C407.804 170.238 400.442 154.106 400.442 141.089C400.442 114.49 423.083 97.7922 452.797 97.7922C470.916 97.7922 493.557 104.024 502.892 129.768L474.873 139.958C471.192 128.348 460.726 125.246 453.087 125.246C444.028 125.246 434.403 130.334 434.403 140.248C434.403 148.176 441.477 152.134 449.405 154.96L470.626 162.599C501.196 172.789 507.139 191.183 507.139 203.635C507.139 231.93 480.816 247.221 451.101 247.221C427.895 247.221 401.572 237.596 393.368 210.143L420.821 198.533V198.546Z" fill="black"/>
<path d="M673.831 219.776C654.582 241.287 631.099 247.229 609.023 247.229C557.509 247.229 526.663 213.833 526.663 173.087C526.663 132.341 559.77 97.8008 605.053 97.8008C643.826 97.8008 680.326 122.138 680.326 177.321H561.466C561.466 199.962 579.861 217.791 610.706 217.791C628.535 217.791 641.841 211.282 654.003 200.238L673.817 219.763L673.831 219.776ZM563.176 153.838H644.681C639.303 131.762 619.778 125.543 605.066 125.543C590.353 125.543 570.539 131.776 563.176 153.838Z" fill="black"/>
<path d="M742.034 132.609C746.846 108.271 765.806 97.7922 781.084 97.7922C785.896 97.7922 788.723 98.6468 792.97 99.7776V134.015C787.592 132.03 781.084 131.188 776.561 131.188C763.82 131.188 742.599 138.262 742.599 177.891V244.118H707.783V100.921H742.021V132.622L742.034 132.609Z" fill="black"/>
<path d="M900.971 244.118H864.459L806.726 100.921H844.369L882.577 205.357L921.062 100.921H958.705L900.971 244.118Z" fill="black"/>
<path d="M1078.28 100.908V122.129C1072.57 110.046 1054.24 97.7922 1032.64 97.7922C984.138 97.7922 958.985 131.188 958.985 172.5C958.985 213.811 995.208 247.208 1036.53 247.208C1077.86 247.208 1114.36 213.811 1114.36 172.5V100.895H1078.28V100.908ZM1036.53 217.506C1012.47 217.506 994.078 197.692 994.078 172.513C994.078 147.334 1012.47 127.52 1036.53 127.52C1060.59 127.52 1079.26 147.611 1079.26 172.513C1079.26 197.416 1060.87 217.506 1036.53 217.506Z" fill="black"/>
<path d="M1137.17 247.233C1149.78 247.233 1160 237.014 1160 224.408C1160 211.802 1149.78 201.582 1137.17 201.582C1124.57 201.582 1114.35 211.802 1114.35 224.408C1114.35 237.014 1124.57 247.233 1137.17 247.233Z" fill="#F94E73"/>
<path d="M62.8252 247.233C75.4312 247.233 85.6504 237.014 85.6504 224.408C85.6504 211.802 75.4312 201.582 62.8252 201.582C50.2192 201.582 40 211.802 40 224.408C40 237.014 50.2192 247.233 62.8252 247.233Z" fill="#177CFF"/>
<path d="M204.336 207.038C198.959 212.127 191.03 215.808 182.55 215.808C161.605 215.808 150.849 190.616 147.457 169.395C175.187 162.322 191.885 138.55 191.885 109.677C191.885 75.7149 169.533 46 130.194 46H44.7177V171.368H114.337C116.322 194.009 130.746 247.219 177.448 247.219C194.146 247.219 205.743 241.842 217.064 231.941L204.323 207.038H204.336ZM124.527 142.507H80.9408V76.0041H124.527C142.921 76.0041 155.096 90.1515 155.096 109.4C155.096 128.649 143.21 142.507 124.527 142.507Z" fill="black"/>
</svg>
