<?xml version="1.0" encoding="UTF-8"?>
<svg xmlns="http://www.w3.org/2000/svg" width="199" height="36" viewBox="0 0 199 36" fill="none">
  <g clip-path="url(#clip0_884_2529)">
    <path d="M0 18.7352V16.9654L0.0798395 4.68361C0.0851622 4.01895 0.636055 3.48462 1.31203 3.48462H13.8522H15.574V3.57063V18.7378" fill="#E74847"></path>
    <path d="M15.5714 3.48462V18.7352H0C0.872912 27.3471 8.29 34.0718 17.3119 34.0718H29.9984C30.339 34.0718 30.6477 33.9363 30.8713 33.7173L15.5714 18.7326V3.48462Z" fill="#5F1032"></path>
    <path d="M31.2334 20.4369L31.1456 18.7323C31.0631 17.9165 30.9061 17.1267 30.7118 16.35C29.123 10.0422 23.9627 5.12378 17.4425 3.77622C16.8304 3.64851 16.2103 3.54425 15.5742 3.48169V18.7323L30.8741 33.717C31.0977 33.4981 31.2361 33.1957 31.2361 32.8621V20.4369H31.2334Z" fill="#961637"></path>
    <path d="M107.482 0.959229C106.657 0.959229 105.978 1.2303 105.411 1.78549C104.844 2.34067 104.567 3.00533 104.567 3.81334C104.567 4.62135 104.844 5.28601 105.411 5.8438C105.981 6.40159 106.657 6.67006 107.482 6.67006C108.307 6.67006 108.985 6.39898 109.552 5.8438C110.119 5.28862 110.396 4.62396 110.396 3.81334C110.396 3.00272 110.119 2.34067 109.552 1.78549C108.985 1.2303 108.307 0.959229 107.482 0.959229Z" fill="url(#paint0_linear_884_2529)"></path>
    <path d="M66.7613 28.5854C66.0933 27.4151 65.3987 26.2552 64.6961 25.1344C64.0122 24.0449 63.3202 23.0232 62.6389 22.1031L62.3089 21.6548L62.8279 21.4332C64.6988 20.6382 66.1865 19.5122 67.2563 18.0891C68.3155 16.6764 68.8531 14.8518 68.8531 12.6624C68.8531 9.49547 67.6662 7.06361 65.2231 5.22343C62.7773 3.38063 59.0089 2.44751 54.0269 2.44751C51.5093 2.44751 49.5692 2.50225 48.2572 2.61433C46.9425 2.7238 46.0403 2.82806 45.5746 2.91929C44.9146 3.06004 44.3424 3.33111 43.8793 3.7273C43.4642 4.08178 43.2539 4.70995 43.2539 5.59094V34.2155C43.2539 34.5595 43.5387 34.8384 43.89 34.8384H47.371C47.7223 34.8384 48.007 34.5595 48.007 34.2155V22.5227L48.5313 22.6035C48.9358 22.6661 49.6464 22.7391 50.6444 22.8173C51.6397 22.8955 52.7122 22.9346 53.83 22.9346C54.3436 22.9346 54.8972 22.9189 55.488 22.885C56.0815 22.8537 56.651 22.8068 57.1939 22.7443L57.4547 22.7156L57.6117 22.9241C58.0721 23.5367 58.6576 24.4255 59.3469 25.5671C60.0255 26.6931 60.7175 27.8869 61.4041 29.1172C62.0907 30.35 62.7268 31.5125 63.3123 32.6177C63.7141 33.3762 64.0415 33.9991 64.2916 34.4944C64.3981 34.7081 64.6216 34.841 64.8638 34.841H69.1219C69.601 34.841 69.907 34.3458 69.6861 33.9287C69.3801 33.3527 69.0607 32.7584 68.7334 32.1459C68.1 30.9704 67.4426 29.7844 66.7613 28.5932V28.5854ZM61.5877 17.2811C60.8106 17.8206 59.7887 18.2481 58.5538 18.5452C57.3376 18.8398 55.8153 18.9883 54.0269 18.9883C52.3955 18.9883 51.1793 18.9414 50.3144 18.8424C49.4601 18.7459 48.8187 18.6651 48.3929 18.6L48.0097 18.54V6.77168L48.3503 6.68567C48.6404 6.61269 49.202 6.54752 50.1121 6.48236C50.9717 6.4172 52.2039 6.38592 53.8805 6.38592C55.7674 6.38592 57.3562 6.55274 58.6097 6.87855C59.8845 7.21218 60.9171 7.67353 61.6755 8.24696C62.4527 8.83863 63.0115 9.52675 63.3309 10.2957C63.6449 11.0489 63.8046 11.8622 63.8046 12.7119C63.8046 13.6294 63.6369 14.4843 63.3043 15.2506C62.9636 16.043 62.3861 16.7285 61.5851 17.2837L61.5877 17.2811Z" fill="url(#paint1_linear_884_2529)"></path>
    <path d="M95.5967 14.5359C94.4417 13.449 93.0552 12.5889 91.4717 11.9737C89.8935 11.3612 88.1663 11.051 86.3433 11.051C84.5203 11.051 82.7931 11.3612 81.215 11.9737C79.6315 12.5889 78.2449 13.449 77.0899 14.5359C75.9349 15.6228 75.0168 16.9235 74.3594 18.4092C73.7047 19.8923 73.3721 21.5291 73.3721 23.2755C73.3721 25.0218 73.7047 26.6144 74.3594 28.0949C75.0168 29.5832 75.9349 30.8838 77.0873 31.9655C78.2423 33.0524 79.6315 33.923 81.215 34.5538C82.7958 35.1819 84.5203 35.5025 86.3407 35.5025C88.161 35.5025 89.8855 35.1846 91.4664 34.5538C93.0498 33.923 94.4391 33.0524 95.5941 31.9681C96.7491 30.8838 97.6672 29.5832 98.3246 28.0975C98.9793 26.617 99.3119 24.9958 99.3119 23.2781C99.3119 21.5604 98.9793 19.8949 98.3246 18.4092C97.6699 16.9261 96.7517 15.6254 95.5941 14.5385L95.5967 14.5359ZM93.819 26.5206C93.4278 27.5032 92.8742 28.3868 92.1689 29.1427C91.461 29.9038 90.5935 30.5033 89.5955 30.9229C88.6028 31.3426 87.5063 31.5563 86.3407 31.5563C85.175 31.5563 84.036 31.3426 83.0593 30.9203C82.0799 30.5007 81.223 29.9012 80.515 29.1401C79.8098 28.3816 79.2562 27.498 78.865 26.5154C78.4711 25.5275 78.2715 24.4354 78.2715 23.2703C78.2715 22.1052 78.4711 21 78.8624 19.9809C79.2562 18.9591 79.8125 18.0651 80.5177 17.3249C81.2256 16.5794 82.0826 15.9903 83.0593 15.5707C84.994 14.7392 87.5755 14.7158 89.5955 15.5707C90.5908 15.9903 91.4557 16.5794 92.1636 17.3249C92.8689 18.0651 93.4251 18.9591 93.819 19.9809C94.2102 21 94.4098 22.1052 94.4098 23.2703C94.4098 24.4354 94.2102 25.5275 93.8163 26.5154L93.819 26.5206Z" fill="url(#paint2_linear_884_2529)"></path>
    <path d="M168.431 14.5359C167.276 13.449 165.889 12.5889 164.306 11.9737C162.728 11.3612 161 11.051 159.177 11.051C157.354 11.051 155.627 11.3612 154.049 11.9737C152.465 12.5889 151.079 13.449 149.924 14.5359C148.769 15.6228 147.851 16.9235 147.193 18.4092C146.539 19.8923 146.206 21.5291 146.206 23.2755C146.206 25.0218 146.539 26.6144 147.193 28.0949C147.851 29.5832 148.769 30.8838 149.921 31.9655C151.076 33.0524 152.463 33.923 154.049 34.5538C155.63 35.1819 157.354 35.5025 159.175 35.5025C160.995 35.5025 162.72 35.1846 164.3 34.5538C165.884 33.923 167.273 33.0524 168.428 31.9681C169.583 30.8838 170.501 29.5832 171.159 28.0975C171.813 26.617 172.146 24.9958 172.146 23.2781C172.146 21.5604 171.813 19.8949 171.159 18.4092C170.504 16.9261 169.586 15.6254 168.428 14.5385L168.431 14.5359ZM166.653 26.5206C166.262 27.5032 165.708 28.3868 165.003 29.1427C164.295 29.9038 163.427 30.5033 162.429 30.9229C161.437 31.3426 160.34 31.5563 159.175 31.5563C158.009 31.5563 156.87 31.3426 155.893 30.9203C154.914 30.5007 154.057 29.9012 153.349 29.1401C152.644 28.3816 152.09 27.498 151.699 26.5154C151.305 25.5275 151.106 24.4354 151.106 23.2703C151.106 22.1052 151.305 21 151.696 19.9809C152.09 18.9591 152.646 18.0651 153.352 17.3249C154.06 16.5794 154.917 15.9903 155.893 15.5707C157.825 14.7392 160.41 14.7158 162.429 15.5707C163.425 15.9903 164.29 16.5794 164.998 17.3249C165.703 18.0651 166.259 18.9591 166.653 19.9809C167.044 21 167.244 22.1052 167.244 23.2703C167.244 24.4354 167.044 25.5275 166.65 26.5154L166.653 26.5206Z" fill="url(#paint3_linear_884_2529)"></path>
    <path d="M109.204 12.2214C108.802 11.9138 108.219 11.7288 107.482 11.7288C106.745 11.7288 106.162 11.9164 105.76 12.2214C105.353 12.5342 105.153 13.0529 105.153 13.8087V34.1993C105.153 34.5486 105.441 34.8301 105.797 34.8301H109.167C109.523 34.8301 109.811 34.5486 109.811 34.1993V13.8087C109.811 13.0529 109.611 12.5342 109.204 12.2214Z" fill="url(#paint4_linear_884_2529)"></path>
    <path d="M140.62 18.3498C140.011 16.8667 139.156 15.5635 138.081 14.474C137.003 13.3897 135.723 12.54 134.276 11.9457C132.825 11.3514 131.218 11.049 129.496 11.049C127.774 11.049 126.129 11.3931 124.772 12.0734C123.404 12.7589 122.321 13.5956 121.555 14.5574L120.743 15.5765V2.02015C120.663 1.56141 120.477 1.22257 120.179 0.995801C119.774 0.688235 119.183 0.503174 118.438 0.503174C118.257 0.503174 118.087 0.5136 117.927 0.534452C117.874 0.542271 117.826 0.552697 117.775 0.563123C117.674 0.581369 117.573 0.599614 117.48 0.625679C117.174 0.711693 116.913 0.839412 116.703 1.00623C116.65 1.04793 116.61 1.10267 116.565 1.14958C116.509 1.20693 116.453 1.26427 116.408 1.33204C116.362 1.39981 116.325 1.47279 116.29 1.54838C116.24 1.66046 116.197 1.78296 116.168 1.91589C116.16 1.94978 116.149 1.98106 116.141 2.01494C116.109 2.18436 116.091 2.36682 116.091 2.56752V22.1214C116.091 24.3865 116.41 26.3778 117.041 28.0408C117.666 29.6933 118.55 31.0878 119.67 32.1825C120.791 33.2824 122.14 34.1165 123.678 34.6613C125.232 35.2165 126.962 35.4954 128.82 35.4954C130.677 35.4954 132.397 35.1852 133.946 34.5701C135.497 33.9575 136.849 33.1026 137.972 32.0365C139.093 30.9679 139.979 29.6698 140.602 28.1711C141.227 26.6698 141.544 25.0225 141.544 23.2709C141.544 21.5193 141.235 19.8303 140.625 18.3446L140.62 18.3498ZM136.123 26.516C135.745 27.5091 135.194 28.3796 134.486 29.1042C133.781 29.8288 132.929 30.4101 131.95 30.8323C130.965 31.2546 129.876 31.4683 128.716 31.4683C127.556 31.4683 126.47 31.2624 125.488 30.8584C124.509 30.4544 123.652 29.8888 122.946 29.1798C122.238 28.4709 121.68 27.5977 121.286 26.589C120.892 25.5881 120.695 24.4725 120.695 23.2761C120.695 22.1423 120.894 21.0606 121.286 20.0571C121.677 19.0562 122.222 18.1726 122.912 17.4324C123.606 16.6843 124.453 16.0952 125.435 15.6756C127.367 14.8441 129.959 14.8206 131.95 15.6756C132.926 16.0952 133.781 16.6739 134.489 17.4011C135.196 18.1309 135.747 19.0093 136.125 20.018C136.5 21.0189 136.689 22.1162 136.689 23.2787C136.689 24.4412 136.498 25.5307 136.123 26.5186V26.516Z" fill="url(#paint5_linear_884_2529)"></path>
    <path d="M196.936 23.5599C195.51 22.5121 193.463 21.8083 190.85 21.4695L185.873 20.8492C184.487 20.6849 183.39 20.367 182.618 19.903C181.761 19.3895 181.328 18.6258 181.328 17.6354C181.328 15.4068 183.385 14.2756 187.446 14.2756C188.841 14.2756 190.086 14.3824 191.148 14.5936C192.207 14.8047 193.133 15.0523 193.9 15.3286C194.174 15.4277 194.427 15.5189 194.658 15.6284C195.036 15.8056 195.361 15.9828 195.683 16.1366C195.882 16.2044 196.077 16.1966 196.247 16.1627C196.673 16.0819 197.067 15.8238 197.362 15.3729C197.434 15.2634 197.49 15.154 197.538 15.0445C197.551 15.008 197.562 14.9715 197.572 14.9376C197.588 14.8959 197.599 14.8516 197.61 14.8099C197.618 14.7317 197.634 14.6613 197.634 14.5779C197.634 13.9263 197.242 13.3425 196.489 12.829C196.119 12.5761 195.664 12.339 195.113 12.1226C193.304 11.4137 190.709 11.054 187.398 11.054C185.429 11.054 183.739 11.2494 182.374 11.6352C181.024 12.0131 179.923 12.5397 179.092 13.2017C178.272 13.8559 177.668 14.6144 177.293 15.4485C176.913 16.2956 176.721 17.2105 176.721 18.1619C176.721 19.2644 176.926 20.221 177.33 20.9977C177.735 21.7771 178.307 22.4391 179.028 22.9708C179.766 23.513 180.665 23.9483 181.698 24.2663C182.754 24.5895 183.93 24.8162 185.195 24.9414L189.008 25.3714C190.858 25.5747 192.122 25.9188 192.875 26.4297C193.687 26.977 194.097 27.785 194.097 28.825C194.097 30.0527 193.442 30.9624 192.204 31.4628C191.079 31.9111 189.626 32.1405 187.883 32.1405C186.56 32.1405 185.32 32.0414 184.191 31.846C183.055 31.6505 182.044 31.4107 181.179 31.137C180.311 30.8659 179.563 30.5948 178.959 30.329C178.618 30.1804 178.344 30.0527 178.121 29.9354L177.61 29.6565C177.173 29.4845 176.803 29.4349 176.492 29.5131C176.074 29.62 175.696 29.8989 175.43 30.3681C175.366 30.4802 175.316 30.5948 175.276 30.7069C175.265 30.7434 175.257 30.7799 175.247 30.8164C175.228 30.8894 175.207 30.9597 175.196 31.0327C175.164 31.2673 175.185 31.4941 175.26 31.7078C175.279 31.7626 175.313 31.8121 175.337 31.8642C175.369 31.9268 175.401 31.9893 175.444 32.0519C175.486 32.1118 175.539 32.1718 175.595 32.2317C175.678 32.3177 175.771 32.4037 175.88 32.4898C175.907 32.5106 175.931 32.5341 175.96 32.5549C176.101 32.6566 176.255 32.7582 176.436 32.8547L176.455 32.8651C176.638 32.9694 176.902 33.1101 177.293 33.3004C177.921 33.6079 178.762 33.9285 179.792 34.257C180.817 34.5828 182.054 34.8747 183.467 35.1275C184.873 35.3778 186.453 35.5029 188.173 35.5029C191.702 35.5029 194.424 34.8095 196.271 33.4411C198.105 32.0831 198.996 30.3238 198.996 28.0587C198.996 26.0517 198.32 24.5817 196.934 23.5599H196.936Z" fill="url(#paint6_linear_884_2529)"></path>
  </g>
  <defs>
    <linearGradient id="paint0_linear_884_2529" x1="42.6705" y1="0.122546" x2="202.603" y2="9.62355" gradientUnits="userSpaceOnUse">
      <stop stop-color="#2B1126"></stop>
      <stop offset="0.14" stop-color="#5F1132"></stop>
      <stop offset="0.38" stop-color="#941638"></stop>
      <stop offset="0.47" stop-color="#E74848"></stop>
      <stop offset="0.64" stop-color="#8D1537"></stop>
      <stop offset="0.75" stop-color="#8F1537"></stop>
      <stop offset="1" stop-color="#2B1126"></stop>
    </linearGradient>
    <linearGradient id="paint1_linear_884_2529" x1="41.5986" y1="18.1881" x2="201.529" y2="27.6864" gradientUnits="userSpaceOnUse">
      <stop stop-color="#2B1126"></stop>
      <stop offset="0.14" stop-color="#5F1132"></stop>
      <stop offset="0.38" stop-color="#941638"></stop>
      <stop offset="0.47" stop-color="#E74848"></stop>
      <stop offset="0.64" stop-color="#8D1537"></stop>
      <stop offset="0.75" stop-color="#8F1537"></stop>
      <stop offset="1" stop-color="#2B1126"></stop>
    </linearGradient>
    <linearGradient id="paint2_linear_884_2529" x1="41.4469" y1="20.7159" x2="201.38" y2="30.2169" gradientUnits="userSpaceOnUse">
      <stop stop-color="#2B1126"></stop>
      <stop offset="0.14" stop-color="#5F1132"></stop>
      <stop offset="0.38" stop-color="#941638"></stop>
      <stop offset="0.47" stop-color="#E74848"></stop>
      <stop offset="0.64" stop-color="#8D1537"></stop>
      <stop offset="0.75" stop-color="#8F1537"></stop>
      <stop offset="1" stop-color="#2B1126"></stop>
    </linearGradient>
    <linearGradient id="paint3_linear_884_2529" x1="41.6908" y1="16.582" x2="201.624" y2="26.0803" gradientUnits="userSpaceOnUse">
      <stop stop-color="#2B1126"></stop>
      <stop offset="0.14" stop-color="#5F1132"></stop>
      <stop offset="0.38" stop-color="#941638"></stop>
      <stop offset="0.47" stop-color="#E74848"></stop>
      <stop offset="0.64" stop-color="#8D1537"></stop>
      <stop offset="0.75" stop-color="#8F1537"></stop>
      <stop offset="1" stop-color="#2B1126"></stop>
    </linearGradient>
    <linearGradient id="paint4_linear_884_2529" x1="41.5159" y1="19.5665" x2="201.449" y2="29.0648" gradientUnits="userSpaceOnUse">
      <stop stop-color="#2B1126"></stop>
      <stop offset="0.14" stop-color="#5F1132"></stop>
      <stop offset="0.38" stop-color="#941638"></stop>
      <stop offset="0.47" stop-color="#E74848"></stop>
      <stop offset="0.64" stop-color="#8D1537"></stop>
      <stop offset="0.75" stop-color="#8F1537"></stop>
      <stop offset="1" stop-color="#2B1126"></stop>
    </linearGradient>
    <linearGradient id="paint5_linear_884_2529" x1="41.8853" y1="13.3558" x2="201.816" y2="22.8541" gradientUnits="userSpaceOnUse">
      <stop stop-color="#2B1126"></stop>
      <stop offset="0.14" stop-color="#5F1132"></stop>
      <stop offset="0.38" stop-color="#941638"></stop>
      <stop offset="0.47" stop-color="#E74848"></stop>
      <stop offset="0.64" stop-color="#8D1537"></stop>
      <stop offset="0.75" stop-color="#8F1537"></stop>
      <stop offset="1" stop-color="#2B1126"></stop>
    </linearGradient>
    <linearGradient id="paint6_linear_884_2529" x1="41.7895" y1="14.9507" x2="201.722" y2="24.449" gradientUnits="userSpaceOnUse">
      <stop stop-color="#2B1126"></stop>
      <stop offset="0.14" stop-color="#5F1132"></stop>
      <stop offset="0.38" stop-color="#941638"></stop>
      <stop offset="0.47" stop-color="#E74848"></stop>
      <stop offset="0.64" stop-color="#8D1537"></stop>
      <stop offset="0.75" stop-color="#8F1537"></stop>
      <stop offset="1" stop-color="#2B1126"></stop>
    </linearGradient>
    <clipPath id="clip0_884_2529">
      <rect width="198.998" height="34.9997" fill="white" transform="translate(0 0.500244)"></rect>
    </clipPath>
  </defs>
</svg>
