<svg xmlns="http://www.w3.org/2000/svg" width="207.421" height="44" viewBox="0 0 207.421 44">
  <g id="layer1" transform="translate(-1.594 -2.592)">
    <g id="g4069" transform="translate(194.102 24.546)">
      <path id="path4071" d="M0,0-12.924-18.542H-24.593L-11.8.128-26.382,22.046h11.307" fill="#0B59DE"/>
    </g>
    <g id="g4073" transform="translate(209.015 2.592)">
      <path id="path4075" d="M0,0H-11.662l-8.033,11.853,6.046,8.34" fill="#0B59DE"/>
    </g>
    <g id="g4077" transform="translate(195.24 26.265)">
      <path id="path4079" d="M0,0,11.662,16.963H-.007L-5.92,8.377" fill="#0B59DE"/>
    </g>
    <g id="g4081" transform="translate(17.034 18.426)">
      <path id="path4083" d="M0,0H-5.9V16.577h-3.64V0h-5.9V-2.99H0Z" fill="#0C2340"/>
    </g>
    <g id="g4085" transform="translate(25.518 24.746)">
      <path id="path4087" d="M0,0A5.633,5.633,0,0,0,1.793-.257a3.468,3.468,0,0,0,1.258-.71A2.861,2.861,0,0,0,3.79-2.043,3.729,3.729,0,0,0,4.033-3.41,2.777,2.777,0,0,0,3.052-5.7a4.69,4.69,0,0,0-3-.8H-2.273V0ZM9.364,10.257H6.076a1.443,1.443,0,0,1-1.353-.731L.609,3.261a1.443,1.443,0,0,0-.507-.5,1.772,1.772,0,0,0-.819-.149H-2.273v7.645h-3.64V-9.31H.054A12.422,12.422,0,0,1,3.471-8.9,6.545,6.545,0,0,1,5.812-7.74,4.525,4.525,0,0,1,7.159-5.961a5.855,5.855,0,0,1,.433,2.28A5.919,5.919,0,0,1,7.3-1.813a5.413,5.413,0,0,1-.839,1.6A5.667,5.667,0,0,1,5.108,1.042a6.777,6.777,0,0,1-1.833.852,3.6,3.6,0,0,1,.65.48,3.435,3.435,0,0,1,.541.657Z" fill="#0C2340"/>
    </g>
    <g id="g4089" transform="translate(47.345 27.614)">
      <path id="path4091" d="M0,0-2.381-6.509q-.177-.432-.366-1.028t-.379-1.286q-.176.691-.365,1.293t-.365,1.048L-6.225,0ZM6.428,7.388H3.613a1.2,1.2,0,0,1-.771-.236A1.481,1.481,0,0,1,2.4,6.563L.933,2.571H-7.172L-8.633,6.563a1.3,1.3,0,0,1-.42.568,1.17,1.17,0,0,1-.772.257h-2.841l7.7-19.567h3.708Z" fill="#0C2340"/>
    </g>
    <g id="g4093" transform="translate(71.012 15.436)">
      <path id="path4095" d="M0,0-7.9,19.567h-3.288L-19.094,0h2.923A1.224,1.224,0,0,1-15.4.23a1.412,1.412,0,0,1,.447.6l4.615,11.935q.23.582.439,1.279t.4,1.454q.162-.758.352-1.454a12.047,12.047,0,0,1,.42-1.279L-4.14.825A1.283,1.283,0,0,1-3.714.257,1.2,1.2,0,0,1-2.936,0Z" fill="#0C2340"/>
    </g>
    <g id="g4097" transform="translate(76.695 18.332)">
      <path id="path4099" d="M0,0V5.426H6.847v2.8H0v5.535H8.688v2.909H-3.653V-2.9H8.688V0Z" fill="#0C2340"/>
    </g>
    <g id="g4101" transform="translate(100.064 31.999)">
      <path id="path4103" d="M0,0V3H-11.461V-16.563h3.64V0Z" fill="#0C2340"/>
    </g>
    <g id="g4105" transform="translate(118.102 25.192)">
      <path id="path4107" d="M0,0V7.916a10.361,10.361,0,0,1-3.173,1.6,12.431,12.431,0,0,1-3.606.508,12.033,12.033,0,0,1-4.337-.744,9.7,9.7,0,0,1-3.315-2.07,9.064,9.064,0,0,1-2.117-3.166A10.617,10.617,0,0,1-17.294.027a11.044,11.044,0,0,1,.718-4.046A9.132,9.132,0,0,1-14.54-7.185a9.091,9.091,0,0,1,3.2-2.056,11.562,11.562,0,0,1,4.222-.731,12.408,12.408,0,0,1,2.227.189,11.3,11.3,0,0,1,1.922.521,8.329,8.329,0,0,1,1.617.8A9.677,9.677,0,0,1-.013-7.415L-1.056-5.764a.992.992,0,0,1-.636.48,1.133,1.133,0,0,1-.852-.2l-.893-.514a5.736,5.736,0,0,0-1-.447,8.231,8.231,0,0,0-1.231-.312,9.078,9.078,0,0,0-1.577-.121,6.758,6.758,0,0,0-2.618.487,5.534,5.534,0,0,0-2,1.393,6.284,6.284,0,0,0-1.272,2.178A8.539,8.539,0,0,0-13.573.027a8.716,8.716,0,0,0,.481,3,6.292,6.292,0,0,0,1.353,2.233,5.772,5.772,0,0,0,2.1,1.394,7.5,7.5,0,0,0,2.747.48A7.438,7.438,0,0,0-4.952,6.9a9.481,9.481,0,0,0,1.664-.623V2.734H-5.751a.738.738,0,0,1-.548-.2.65.65,0,0,1-.2-.48V0Z" fill="#0C2340"/>
    </g>
    <g id="g4109" transform="translate(131.728 27.614)">
      <path id="path4111" d="M0,0-2.381-6.509q-.177-.432-.365-1.028t-.379-1.286q-.177.691-.366,1.293t-.365,1.048L-6.225,0ZM6.428,7.388H3.613a1.2,1.2,0,0,1-.771-.236A1.477,1.477,0,0,1,2.4,6.563L.934,2.571H-7.172L-8.633,6.563a1.3,1.3,0,0,1-.419.568,1.173,1.173,0,0,1-.772.257h-2.842l7.7-19.567h3.708Z" fill="#0C2340"/>
    </g>
    <g id="g4113" transform="translate(151.945 18.426)">
      <path id="path4115" d="M0,0H-5.9V16.577H-9.54V0h-5.9V-2.99H0Z" fill="#0C2340"/>
    </g>
    <g id="g4117" transform="translate(158.169 18.332)">
      <path id="path4119" d="M0,0V5.426H6.847v2.8H0v5.535H8.688v2.909H-3.653V-2.9H8.688V0Z" fill="#0C2340"/>
    </g>
  </g>
</svg>
