<?xml version="1.0" encoding="UTF-8"?> <svg xmlns="http://www.w3.org/2000/svg" width="234.802" height="74.154" viewBox="0 0 234.802 74.154"><path d="M693.686,312.733H696.9v3.806h.075c1.544-2.622,3.209-4.1,6.537-4.1V315.1a5.941,5.941,0,0,0-4.119,1.647,7.922,7.922,0,0,0-2.493,5.239v9.976h-3.216Z" transform="translate(-620.954 -265.008)" fill="#033d6f"></path><path d="M716.978,321.576c-6.382,1.072-9.515,2.849-9.515,5.512a3.246,3.246,0,0,0,3.329,2.954,9.463,9.463,0,0,0,6.186-3.18Zm-12.15-5.14a9.067,9.067,0,0,1,7.972-4.068c3.405,0,7.392,1.554,7.392,5.769v9.691a14.339,14.339,0,0,0,.464,4.141h-3.294l-.3-2.664a9.168,9.168,0,0,1-6.654,3.031c-3.1,0-6.156-1.776-6.156-5.287,0-4.218,3.8-6.324,12.73-7.837v-1.035c0-2.553-1.741-3.516-4.141-3.516a5.213,5.213,0,0,0-5.144,3Z" transform="translate(-619.559 -265.016)" fill="#033d6f"></path><path d="M730.918,331.927h-4.14L720.585,312.7h3.26l5.1,15.9h.078l5.108-15.9h2.821Z" transform="translate(-617.401 -264.973)" fill="#033d6f"></path><path d="M759.02,305.631V332.86h-3.25V307.006Z" transform="translate(-612.754 -265.906)" fill="#033d6f"></path><path d="M770.67,314.661c-3.325,0-5.452,2.74-5.452,7.695s2.127,7.686,5.452,7.686,5.45-2.734,5.45-7.686-2.122-7.695-5.45-7.695m0,17.675c-5.494,0-8.671-4.439-8.671-9.98s3.177-9.987,8.671-9.987,8.668,4.435,8.668,9.987-3.174,9.98-8.668,9.98" transform="translate(-611.931 -265.016)" fill="#033d6f"></path><path d="M793.033,318.47c-.774-2.329-2.359-3.811-4.757-3.811-3.44,0-5.452,2.81-5.452,7.7s2.012,7.686,5.452,7.686c2.551,0,3.983-.809,5.531-3.547l2.675.959c-2.014,3.255-4.224,4.883-8.207,4.883-5.029,0-8.667-3.77-8.667-9.98s3.638-9.987,8.667-9.987a7.9,7.9,0,0,1,7.778,5.218Z" transform="translate(-609.605 -265.016)" fill="#033d6f"></path><rect width="3.212" height="19.232" transform="translate(190.261 47.721)" fill="#033d6f"></rect><path d="M688.287,330.8c-1.623,0-2.281-.44-2.281-1.326V315.789h4.02l.621-2.3h-4.642v-6.848l-3.218,1.376v5.472h-2.96v2.3h2.96v14.125c.329,2.44,1.708,3.179,4.723,3.179a14.68,14.68,0,0,0,3-.268l.61-2.262a17.994,17.994,0,0,1-2.837.235" transform="translate(-622.785 -265.772)" fill="#033d6f"></path><path d="M832.951,312.7l-7.08,20.929c-1.571,4.288-4.631,5.5-7.266,5.5a22.49,22.49,0,0,1-2.637-.221l.693-2.289a13.717,13.717,0,0,0,1.509.11c1.7,0,4.294-.366,5.261-4.58l-7-19.448h2.94l5.416,14.676h.075L829.58,312.7Z" transform="translate(-604.803 -264.973)" fill="#033d6f"></path><path d="M812.7,330.8c-1.625,0-2.282-.44-2.282-1.326V315.789h4.022l.621-2.3h-4.644v-6.848L807.2,308.02v5.472h-2.956v2.3H807.2v14.125c.331,2.44,1.709,3.179,4.726,3.179a14.76,14.76,0,0,0,3.006-.268l.609-2.262a18.089,18.089,0,0,1-2.84.235" transform="translate(-606.351 -265.772)" fill="#033d6f"></path><path d="M745.743,314.661c3.017,0,4.794,2.366,4.794,5.917h-10.21c.231-3.551,2.051-5.917,5.416-5.917m5.972,12.226a6.231,6.231,0,0,1-5.511,3.154c-3.325,0-5.953-2.956-5.953-7.175h13.5V321.1c0-6.142-3.91-8.727-8.09-8.727-4.95,0-8.627,3.772-8.627,9.987,0,7.02,4.685,9.98,9.168,9.98,3.841,0,5.169-.339,7.522-3.509Z" transform="translate(-615.229 -265.016)" fill="#033d6f"></path><rect width="3.212" height="3.182" transform="translate(190.261 39.624)" fill="#033d6f"></rect><path d="M634.075,305.339c.476-.2.971-.251,1.464-.419a21.589,21.589,0,0,1-2.225-2.494c-.2-.263-.1-.4.061-.46.151.024.042-.308.142-.449.327-.109.3-.426.479-.634.01-.077-.035-.32.052-.383a.342.342,0,0,1,.394-.024,9.98,9.98,0,0,0,2.025,1.69,17.737,17.737,0,0,1,2.488,1.75c.073.01.293.12.314-.031a6.688,6.688,0,0,1,.685-2.092,3.024,3.024,0,0,1,.333-.732,2.873,2.873,0,0,1,1.158-1.009c.675-.375,1.488-.027,1.956-.585.172-.134.465-.01.62.009.44.216,1.081.074,1.42.432a37.641,37.641,0,0,0-1.045,4.145c-.043.3-.26.745-.041.852a6.039,6.039,0,0,0,2.511-.118,10.537,10.537,0,0,1,2.7.224,4.173,4.173,0,0,1,1.741.944c.988.762.961,2.085.874,3.24-.009.08-.455.485-.61.465-.075-.011-.111-.329-.188-.341a8.023,8.023,0,0,1-1.307.987c-.076-.009-.558-.468-.778-.575a3.616,3.616,0,0,0-2.535-.279,9.637,9.637,0,0,0-3.012.361c.369.674,1.026,1,1.577,1.544.884.906,1.8,1.58,2.779,2.42a7.568,7.568,0,0,1,1.613,1.86c-.251.122-.021.247-.118.389-.16.057-.143-.189-.3-.213s-.26.2-.211.361c.067.086-.145.488-.307.543-.086.066-.446.3-.585.272-.077-.019-.556-.207-.5-.149.177.192.3.543.255.6a1.23,1.23,0,0,1-.851-.375c-1.262-1.038-2.357-2.124-3.685-3.247a12.017,12.017,0,0,0-1.354-1.44c-.914,2.056-1.545,3.541-2.458,5.6-.221.358-.335,1.313-.536,1.43-.129.074-.7-.694-.97-1.254a26.521,26.521,0,0,1,.224-3.017l.029-.23c.082-1.706.6-3.19.531-4.92.024-.152-.208-.185-.438-.215-2.3-.247-4.533-.479-6.829-.8a5.734,5.734,0,0,1-1.6-.3,1.085,1.085,0,0,0-.443-.217c-.06-.087-.06-.087-.136-.1a10.5,10.5,0,0,1,2.965-2.371c.323-.146,1.253-.468,1.67-.646" transform="translate(-629.44 -268.272)" fill="#f5592c"></path><path d="M652.4,315.976c-.134-.045-.061-.186-.061-.246.12-.248.43-.186.612-.186.619-.181,1.294,0,1.909-.179.125-.062.246-.246.309-.246a12.657,12.657,0,0,1,1.421-.43c.119-.059.427-.244.308-.429a5.227,5.227,0,0,1-1.349-1.786c-.189-.376-.5-.679-.494-1.048,0-.311.373-.369.678-.246a11.638,11.638,0,0,1,3.255,3.023c.188.246.37-.306.435-.492a31.867,31.867,0,0,1,1.3-3.016c.12-.306.37-.672.678-.735a4.439,4.439,0,0,0,1.171-.676c.308-.121.555,0,.863-.181.182-.061.43.243.678.127.371-.251.679-.061,1.048,0a.507.507,0,0,1,.245.615,16.845,16.845,0,0,1-1.113,2.645c-.436.675-.8,1.292-1.3,1.969,0,.061-.061.183.06.245a4.516,4.516,0,0,1,.924.125,21.257,21.257,0,0,0,2.833.376c.492.121.49.8.923,1.173.245.185-.188.369-.432.428-.68.187-1.355-.061-2.034.123-1.172.241-2.277-.007-3.386.422.369.369.736.677,1.044,1.049.309.432.619.86.923,1.3a5.058,5.058,0,0,1,.615,1.476,2.018,2.018,0,0,1,.052.863c-.117-.062-.117-.308-.242-.372-.121,0-.247.249-.429.187a.519.519,0,0,1-.309-.311,2.609,2.609,0,0,1-.549-.862,6.367,6.367,0,0,0-2.094-2.158,28.955,28.955,0,0,1-2.345,4.552c-.063.123-.248.123-.432.123-.062-.065-.183.12-.248.182-.058-.122-.185-.182-.242-.247-.309-.249-.738-.5-.864-.863a2.286,2.286,0,0,1-.3-1.049c0-.059-.127-.183-.127-.247.127-.245.127-.552.25-.736a1.751,1.751,0,0,0,.49-.679,8.97,8.97,0,0,0,.993-2.091c-1.477-.247-3.015-.129-4.432-.684a7.448,7.448,0,0,1-.983-.432c-.122-.126-.061-.311-.246-.37" transform="translate(-626.419 -266.497)" fill="#033d6f"></path><path d="M654.645,297.742c.441-1.07,1.189-1.772,1.305-2.983-2.435-1.309-5.4-.547-7.179-3.632-.421-.645.023-3.785.264-4.14.548-1.137,1.607-1.13,2.625-.334a3.076,3.076,0,0,1,1.026.221,9.678,9.678,0,0,1,3.113.457c1.39.153,2.546.662,3.81.53a.888.888,0,0,0,.211-.712c-.307-1.86-.745-3.432-1.214-5.363a6.743,6.743,0,0,1-.275-1.5c-.083-1.072-.855-2.789-.151-3.282.1-.07.231.214.331.147.2-.145.337-.427.505-.357,2.4,1.519,4.387,3.891,6.477,6.195.687.649.813-1.138,1.352-1.7.138-.282-.019-.927.119-1.214.513-.924.631-2.135,1.042-2.989.814-1.134,1.271-2.774,2.508-3.264a2.6,2.6,0,0,1,2.508.878c.163.07.533,0,.762.222.848.72,1.566,1.724,2.481,2.591a1.53,1.53,0,0,1,.31,1.287c-.218,1.283-1.379,1.344-2.058,2.194q-1.989,3.089-3.979,6.18c-.132.284-.507.924-.215,1.28a43.419,43.419,0,0,0,5.531,4.975c1.283.8,2.715.734,3.858,1.818a9.554,9.554,0,0,1,1.842,3.229c-4.661,2.886-9.964-1.874-14.943-1.769-.365.069-.275.567-.314.78.269,2.075.639,4.079.838,6.008.114,1.429.859,2.788,1.067,4.15.092.5.568,1.861-.125,1.783a2.369,2.369,0,0,1-2.338-1.377,38.976,38.976,0,0,1-1.917-4.871,2.666,2.666,0,0,1-.11-1.43,4.9,4.9,0,0,0-.7-2.145c-.128-.289-.464.138-.667.278a26.625,26.625,0,0,0-1.965,2.7,9.677,9.677,0,0,1-4,3.18c-1.135.418-2.864.691-3.634-1.034.365-.068.675-.848.447-1.068-1.784-2.513.694-4.062,1.452-5.914" transform="translate(-626.91 -273.751)" fill="#2b93ca"></path><path d="M835.02,314.736c.094,0,.182,0,.266-.008a.672.672,0,0,0,.229-.055.351.351,0,0,0,.157-.129.456.456,0,0,0,.058-.25.375.375,0,0,0-.052-.215.356.356,0,0,0-.136-.124.854.854,0,0,0-.19-.06,2.048,2.048,0,0,0-.216-.012h-.558v.855Zm.187-1.2a1.124,1.124,0,0,1,.718.19.708.708,0,0,1,.233.58.648.648,0,0,1-.206.536.922.922,0,0,1-.512.2l.778,1.2h-.453l-.738-1.169h-.45v1.169h-.424v-2.711Zm-1.92,2.137a1.885,1.885,0,0,0,.405.629,1.8,1.8,0,0,0,.609.419,1.887,1.887,0,0,0,.76.151,1.854,1.854,0,0,0,1.356-.569,1.919,1.919,0,0,0,.4-.629,2.062,2.062,0,0,0,.146-.794,2,2,0,0,0-.146-.773,1.908,1.908,0,0,0-1.008-1.039,1.865,1.865,0,0,0-.752-.149,1.888,1.888,0,0,0-.76.149,1.789,1.789,0,0,0-.609.419,1.814,1.814,0,0,0-.405.62,2.089,2.089,0,0,0-.146.773,2.153,2.153,0,0,0,.146.794m-.386-1.706a2.324,2.324,0,0,1,.507-.731,2.4,2.4,0,0,1,.747-.488,2.334,2.334,0,0,1,.906-.175,2.306,2.306,0,0,1,.9.175,2.371,2.371,0,0,1,.74.488,2.291,2.291,0,0,1,.507.731,2.223,2.223,0,0,1,.185.912,2.27,2.27,0,0,1-.692,1.664,2.241,2.241,0,0,1-.74.488,2.3,2.3,0,0,1-.9.173,2.333,2.333,0,0,1-.906-.173,2.27,2.27,0,0,1-.747-.488,2.353,2.353,0,0,1-.507-.735,2.262,2.262,0,0,1-.188-.929,2.186,2.186,0,0,1,.188-.912" transform="translate(-602.591 -266.199)" fill="#033d6f"></path><path d="M835.02,314.736c.094,0,.182,0,.266-.008a.672.672,0,0,0,.229-.055.351.351,0,0,0,.157-.129.456.456,0,0,0,.058-.25.375.375,0,0,0-.052-.215.356.356,0,0,0-.136-.124.854.854,0,0,0-.19-.06,2.048,2.048,0,0,0-.216-.012h-.558v.855Zm.187-1.2a1.124,1.124,0,0,1,.718.19.708.708,0,0,1,.233.58.648.648,0,0,1-.206.536.922.922,0,0,1-.512.2l.778,1.2h-.453l-.738-1.169h-.45v1.169h-.424v-2.711Zm-1.92,2.137a1.885,1.885,0,0,0,.405.629,1.8,1.8,0,0,0,.609.419,1.887,1.887,0,0,0,.76.151,1.854,1.854,0,0,0,1.356-.569,1.919,1.919,0,0,0,.4-.629,2.062,2.062,0,0,0,.146-.794,2,2,0,0,0-.146-.773,1.908,1.908,0,0,0-1.008-1.039,1.865,1.865,0,0,0-.752-.149,1.888,1.888,0,0,0-.76.149,1.789,1.789,0,0,0-.609.419,1.814,1.814,0,0,0-.405.62,2.089,2.089,0,0,0-.146.773,2.153,2.153,0,0,0,.146.794m-.386-1.706a2.324,2.324,0,0,1,.507-.731,2.4,2.4,0,0,1,.747-.488,2.334,2.334,0,0,1,.906-.175,2.306,2.306,0,0,1,.9.175,2.371,2.371,0,0,1,.74.488,2.291,2.291,0,0,1,.507.731,2.223,2.223,0,0,1,.185.912,2.27,2.27,0,0,1-.692,1.664,2.241,2.241,0,0,1-.74.488,2.3,2.3,0,0,1-.9.173,2.333,2.333,0,0,1-.906-.173,2.27,2.27,0,0,1-.747-.488,2.353,2.353,0,0,1-.507-.735,2.262,2.262,0,0,1-.188-.929,2.186,2.186,0,0,1,.188-.912" transform="translate(-602.591 -266.199)" fill="#033d6f"></path></svg> 